<svg xmlns="http://www.w3.org/2000/svg" width="40" height="40"
     viewBox="0 0 40 40" fill="none">
    <path fill-rule="evenodd" fill="#646464"
          d="M34.166 11.6667C34.628 11.6667 35 11.2935 35 10.8333C35 10.3732 34.628 10 34.166 10L5.834 10C5.372 10 5 10.3732 5 10.8333C5 11.2935 5.372 11.6667 5.834 11.6667L34.166 11.6667ZM34.166 20C34.628 20 35 19.6268 35 19.1666C35 18.7065 34.628 18.3333 34.166 18.3333L5.834 18.3333C5.372 18.3333 5 18.7065 5 19.1666C5 19.6268 5.372 20 5.834 20L34.166 20ZM35 27.5C35 27.9602 34.628 28.3334 34.166 28.3334L5.834 28.3334C5.372 28.3334 5 27.9602 5 27.5C5 27.0399 5.372 26.6667 5.834 26.6667L34.166 26.6667C34.628 26.6667 35 27.0399 35 27.5Z">
    </path>
</svg>
