<svg xmlns="http://www.w3.org/2000/svg" xmlns:xlink="http://www.w3.org/1999/xlink" width="400.9809875488281" height="352.9169921875" viewBox="0 0 400.9809875488281 352.9169921875" fill="none">
<path   fill-rule="evenodd"  fill="#746AEB"  d="M164.966 176.8L227.514 176.8L227.081 172.408C226.573 167.255 226.914 162.289 228.105 157.51C229.174 153.216 230.977 148.906 233.512 144.579C234.666 142.61 235.997 140.589 237.506 138.517C238.867 136.647 240.416 134.676 242.155 132.603C243.62 130.856 245.331 128.907 247.286 126.756C248.471 125.453 250.281 123.497 252.714 120.889C256.622 116.702 259.935 112.637 262.652 108.694C265.677 104.304 268.113 99.8589 269.958 95.3588C271.937 90.5346 273.293 85.5184 274.026 80.3101C274.789 74.8968 274.894 69.1722 274.343 63.1363C273.89 58.17 272.776 53.3353 271.001 48.6322C269.344 44.2405 267.127 40.0085 264.352 35.936C261.773 32.1517 258.744 28.5522 255.265 25.1374C252.028 21.9605 248.457 18.9964 244.552 16.2449C240.895 13.669 237.032 11.3395 232.963 9.25652C229.106 7.28206 225.19 5.5923 221.213 4.18724C217.363 2.82676 213.618 1.78922 209.978 1.0746C206.328 0.3582 202.956 0 199.86 0C191.778 3.8147e-06 184.349 0.59351 177.572 1.78051C170.551 3.01012 164.01 4.91338 157.949 7.4903C151.812 10.0994 146.007 13.4667 140.533 17.5921C135.122 21.6692 129.894 26.5944 124.848 32.3677L121.729 35.9366L125.771 38.4115C126.392 38.7916 127.235 39.3454 128.3 40.0729C130.463 41.5502 132.614 43.1354 134.753 44.8285C137.741 47.1935 140.485 49.599 142.984 52.0449C146.073 55.0676 148.693 58.0594 150.843 61.0203C152.893 63.8424 154.622 66.5755 156.031 69.2195L158.484 73.8213L162.293 70.2599C164.337 68.3481 166.537 66.6398 168.891 65.1351C171.268 63.6154 173.762 62.33 176.372 61.2789C179.029 60.2087 181.764 59.3987 184.577 58.8489C187.464 58.2848 190.391 58.0028 193.36 58.0028C218.489 58.0028 238.86 78.3739 238.86 103.503C238.86 128.632 218.489 149.003 193.36 149.003C189.434 149.003 185.591 148.512 181.83 147.53C178.183 146.578 174.706 145.189 171.399 143.362L166.864 140.858L165.588 145.88C163.339 154.737 162.956 163.916 164.438 173.417L164.966 176.8ZM245.04 117.391C246.227 112.962 246.86 108.306 246.86 103.503C246.86 73.9556 222.907 50.0028 193.36 50.0028C189.875 50.0028 186.436 50.3344 183.043 50.9975C179.732 51.6447 176.512 52.5982 173.383 53.8581C170.312 55.095 167.379 56.6071 164.583 58.3944C163.215 59.2682 161.893 60.2003 160.615 61.1908C159.61 59.5881 158.511 57.9644 157.317 56.3197C154.902 52.9949 151.99 49.6639 148.579 46.3268C145.879 43.6849 142.926 41.0946 139.718 38.5558C137.805 37.0418 135.882 35.6071 133.947 34.2516C137.659 30.3344 141.459 26.9109 145.347 23.9811C150.3 20.2489 155.544 17.206 161.079 14.8525C166.577 12.5152 172.534 10.7845 178.952 9.66056C185.273 8.55353 192.242 8.00001 199.86 8C202.437 8 205.296 8.30825 208.437 8.92476C211.694 9.56433 215.065 10.4995 218.548 11.7302C222.188 13.0165 225.778 14.5656 229.318 16.3777C233.053 18.2896 236.595 20.4253 239.944 22.7849C243.495 25.2865 246.734 27.9738 249.661 30.8467C252.765 33.8932 255.458 37.0914 257.741 40.4412C260.158 43.9883 262.083 47.6602 263.516 51.457C265.035 55.4828 265.989 59.6184 266.377 63.8637C266.872 69.2834 266.781 74.3935 266.104 79.1941C265.464 83.741 264.281 88.1174 262.556 92.3235C260.929 96.2928 258.765 100.237 256.064 104.155C253.571 107.774 250.505 111.532 246.866 115.431C246.213 116.13 245.605 116.783 245.04 117.391ZM65 290.283L54.34 290.283C32.76 290.283 22.36 282.483 22.36 253.363C22.36 232.043 24.7 214.623 24.7 194.863C24.7 182.903 20.02 171.723 0 171.463L0 161.323C20.02 161.323 24.7 149.883 24.7 138.703C24.7 118.423 22.36 101.003 22.36 79.9428C22.36 50.8228 32.76 42.5028 54.34 42.5028L65 42.5028L65 52.1228L56.42 52.1228C39.52 52.1228 35.1 61.2228 35.1 81.2428C35.1 99.4428 36.66 115.043 36.66 135.843C36.66 153.003 33.02 162.623 21.32 166.003L21.32 167.043C33.02 170.683 36.66 180.563 36.66 197.463C36.66 218.003 35.1 233.603 35.1 252.063C35.1 271.563 39.52 280.923 56.42 280.923L65 280.923L65 290.283ZM346.381 290.283L335.981 290.283L335.981 280.923L344.301 280.923C361.461 280.923 366.141 271.563 366.141 252.063C366.141 233.603 364.321 218.003 364.321 197.463C364.321 180.563 367.961 170.683 379.401 167.043L379.401 166.003C367.961 162.623 364.321 153.003 364.321 135.843C364.321 115.043 366.141 99.4428 366.141 81.2428C366.141 61.2228 361.461 52.1228 344.301 52.1228L335.981 52.1228L335.981 42.5028L346.381 42.5028C368.221 42.5028 378.881 50.8228 378.881 79.9428C378.881 101.003 376.281 118.423 376.281 138.703C376.281 149.883 380.961 161.323 400.981 161.323L400.981 171.463C380.961 171.723 376.281 182.903 376.281 194.863C376.281 214.623 378.881 232.043 378.881 253.363C378.881 282.483 368.221 290.283 346.381 290.283ZM228.86 103.003C228.86 122.333 213.19 138.003 193.86 138.003C174.53 138.003 158.86 122.333 158.86 103.003C158.86 83.6728 174.53 68.0028 193.86 68.0028C213.19 68.0028 228.86 83.6728 228.86 103.003ZM171.901 168.8L218.861 168.8C218.778 164.278 219.272 159.87 220.342 155.576C220.957 153.108 221.772 150.646 222.787 148.19C214.344 153.761 204.231 157.003 193.36 157.003C188.749 157.003 184.232 156.426 179.809 155.271C177.244 154.601 174.75 153.747 172.328 152.71C171.469 157.938 171.327 163.301 171.901 168.8ZM144.481 312.095L159.974 352.917L163.546 351.839C176.074 348.058 187.223 343.033 196.994 336.763C206.685 330.544 214.861 323.205 221.52 314.746C228.149 306.326 233.15 296.957 236.524 286.639C239.888 276.352 241.57 265.316 241.57 253.53C241.57 244.977 240.774 237.188 239.183 230.163C237.571 223.046 235.169 216.83 231.978 211.517C228.7 206.059 224.657 201.66 219.848 198.32C214.961 194.925 209.407 192.71 203.187 191.674C200.724 191.231 198.185 191.01 195.57 191.01L194.86 191.01C191.924 191.01 189.05 191.244 186.238 191.711C183.451 192.174 180.765 192.861 178.18 193.77C175.597 194.678 173.155 195.794 170.852 197.119C168.534 198.453 166.394 199.977 164.432 201.691C162.444 203.428 160.67 205.334 159.11 207.407C157.522 209.518 156.181 211.771 155.087 214.166C153.97 216.609 153.126 219.166 152.554 221.835C151.971 224.56 151.68 227.368 151.68 230.26C151.68 234.285 152.2 238.112 153.241 241.742C154.205 245.105 155.598 248.238 157.419 251.142C158.9 254.85 160.836 258.25 163.227 261.341C165.713 264.556 168.598 267.316 171.88 269.622C175.229 271.975 178.873 273.769 182.81 275.005C185.256 275.773 187.769 276.31 190.349 276.616C189.545 278.887 188.49 281.111 187.185 283.288C184.977 286.97 182.096 290.451 178.54 293.731C174.867 297.118 170.549 300.223 165.585 303.045C160.443 305.968 154.703 308.534 148.364 310.743L144.481 312.095ZM164.79 343.06C175.162 339.646 184.457 335.303 192.673 330.03C201.61 324.295 209.13 317.551 215.234 309.797C221.278 302.12 225.84 293.572 228.92 284.153C232.02 274.674 233.57 264.466 233.57 253.53C233.57 245.573 232.84 238.373 231.381 231.93C229.958 225.647 227.871 220.216 225.12 215.636C222.431 211.159 219.153 207.577 215.285 204.89C211.382 202.179 206.911 200.405 201.873 199.566C199.811 199.195 197.71 199.01 195.57 199.01L194.86 199.01C189.883 199.01 185.207 199.779 180.833 201.317C176.578 202.813 172.865 204.946 169.696 207.715C166.516 210.494 164.072 213.752 162.363 217.491C160.574 221.404 159.68 225.661 159.68 230.26C159.68 233.535 160.097 236.628 160.931 239.537C161.717 242.278 162.862 244.818 164.365 247.158L164.582 247.495L164.728 247.869C165.947 251.004 167.557 253.863 169.555 256.447C171.548 259.024 173.856 261.233 176.479 263.076C179.15 264.953 182.059 266.385 185.206 267.372C188.481 268.401 191.921 268.917 195.524 268.92L200.421 268.925L199.439 273.722C198.468 278.464 196.67 283.024 194.046 287.401C191.445 291.742 188.084 295.812 183.964 299.612C179.842 303.413 175.034 306.875 169.539 309.999C165.047 312.553 160.152 314.848 154.856 316.884L164.79 343.06Z">
</path>
<path   fill-rule="evenodd"  fill="url(#linear_fill_148_27_1)"  d="M164.966 176.8L227.514 176.8L227.081 172.408C226.573 167.255 226.914 162.289 228.105 157.51C229.174 153.216 230.977 148.906 233.512 144.579C234.666 142.61 235.997 140.589 237.506 138.517C238.867 136.647 240.416 134.676 242.155 132.603C243.62 130.856 245.331 128.907 247.286 126.756C248.471 125.453 250.281 123.497 252.714 120.889C256.622 116.702 259.935 112.637 262.652 108.694C265.677 104.304 268.113 99.8589 269.958 95.3588C271.937 90.5346 273.293 85.5184 274.026 80.3101C274.789 74.8968 274.894 69.1722 274.343 63.1363C273.89 58.17 272.776 53.3353 271.001 48.6322C269.344 44.2405 267.127 40.0085 264.352 35.936C261.773 32.1517 258.744 28.5522 255.265 25.1374C252.028 21.9605 248.457 18.9964 244.552 16.2449C240.895 13.669 237.032 11.3395 232.963 9.25652C229.106 7.28206 225.19 5.5923 221.213 4.18724C217.363 2.82676 213.618 1.78922 209.978 1.0746C206.328 0.3582 202.956 0 199.86 0C191.778 3.8147e-06 184.349 0.59351 177.572 1.78051C170.551 3.01012 164.01 4.91338 157.949 7.4903C151.812 10.0994 146.007 13.4667 140.533 17.5921C135.122 21.6692 129.894 26.5944 124.848 32.3677L121.729 35.9366L125.771 38.4115C126.392 38.7916 127.235 39.3454 128.3 40.0729C130.463 41.5502 132.614 43.1354 134.753 44.8285C137.741 47.1935 140.485 49.599 142.984 52.0449C146.073 55.0676 148.693 58.0594 150.843 61.0203C152.893 63.8424 154.622 66.5755 156.031 69.2195L158.484 73.8213L162.293 70.2599C164.337 68.3481 166.537 66.6398 168.891 65.1351C171.268 63.6154 173.762 62.33 176.372 61.2789C179.029 60.2087 181.764 59.3987 184.577 58.8489C187.464 58.2848 190.391 58.0028 193.36 58.0028C218.489 58.0028 238.86 78.3739 238.86 103.503C238.86 128.632 218.489 149.003 193.36 149.003C189.434 149.003 185.591 148.512 181.83 147.53C178.183 146.578 174.706 145.189 171.399 143.362L166.864 140.858L165.588 145.88C163.339 154.737 162.956 163.916 164.438 173.417L164.966 176.8ZM245.04 117.391C246.227 112.962 246.86 108.306 246.86 103.503C246.86 73.9556 222.907 50.0028 193.36 50.0028C189.875 50.0028 186.436 50.3344 183.043 50.9975C179.732 51.6447 176.512 52.5982 173.383 53.8581C170.312 55.095 167.379 56.6071 164.583 58.3944C163.215 59.2682 161.893 60.2003 160.615 61.1908C159.61 59.5881 158.511 57.9644 157.317 56.3197C154.902 52.9949 151.99 49.6639 148.579 46.3268C145.879 43.6849 142.926 41.0946 139.718 38.5558C137.805 37.0418 135.882 35.6071 133.947 34.2516C137.659 30.3344 141.459 26.9109 145.347 23.9811C150.3 20.2489 155.544 17.206 161.079 14.8525C166.577 12.5152 172.534 10.7845 178.952 9.66056C185.273 8.55353 192.242 8.00001 199.86 8C202.437 8 205.296 8.30825 208.437 8.92476C211.694 9.56433 215.065 10.4995 218.548 11.7302C222.188 13.0165 225.778 14.5656 229.318 16.3777C233.053 18.2896 236.595 20.4253 239.944 22.7849C243.495 25.2865 246.734 27.9738 249.661 30.8467C252.765 33.8932 255.458 37.0914 257.741 40.4412C260.158 43.9883 262.083 47.6602 263.516 51.457C265.035 55.4828 265.989 59.6184 266.377 63.8637C266.872 69.2834 266.781 74.3935 266.104 79.1941C265.464 83.741 264.281 88.1174 262.556 92.3235C260.929 96.2928 258.765 100.237 256.064 104.155C253.571 107.774 250.505 111.532 246.866 115.431C246.213 116.13 245.605 116.783 245.04 117.391ZM65 290.283L54.34 290.283C32.76 290.283 22.36 282.483 22.36 253.363C22.36 232.043 24.7 214.623 24.7 194.863C24.7 182.903 20.02 171.723 0 171.463L0 161.323C20.02 161.323 24.7 149.883 24.7 138.703C24.7 118.423 22.36 101.003 22.36 79.9428C22.36 50.8228 32.76 42.5028 54.34 42.5028L65 42.5028L65 52.1228L56.42 52.1228C39.52 52.1228 35.1 61.2228 35.1 81.2428C35.1 99.4428 36.66 115.043 36.66 135.843C36.66 153.003 33.02 162.623 21.32 166.003L21.32 167.043C33.02 170.683 36.66 180.563 36.66 197.463C36.66 218.003 35.1 233.603 35.1 252.063C35.1 271.563 39.52 280.923 56.42 280.923L65 280.923L65 290.283ZM346.381 290.283L335.981 290.283L335.981 280.923L344.301 280.923C361.461 280.923 366.141 271.563 366.141 252.063C366.141 233.603 364.321 218.003 364.321 197.463C364.321 180.563 367.961 170.683 379.401 167.043L379.401 166.003C367.961 162.623 364.321 153.003 364.321 135.843C364.321 115.043 366.141 99.4428 366.141 81.2428C366.141 61.2228 361.461 52.1228 344.301 52.1228L335.981 52.1228L335.981 42.5028L346.381 42.5028C368.221 42.5028 378.881 50.8228 378.881 79.9428C378.881 101.003 376.281 118.423 376.281 138.703C376.281 149.883 380.961 161.323 400.981 161.323L400.981 171.463C380.961 171.723 376.281 182.903 376.281 194.863C376.281 214.623 378.881 232.043 378.881 253.363C378.881 282.483 368.221 290.283 346.381 290.283ZM228.86 103.003C228.86 122.333 213.19 138.003 193.86 138.003C174.53 138.003 158.86 122.333 158.86 103.003C158.86 83.6728 174.53 68.0028 193.86 68.0028C213.19 68.0028 228.86 83.6728 228.86 103.003ZM171.901 168.8L218.861 168.8C218.778 164.278 219.272 159.87 220.342 155.576C220.957 153.108 221.772 150.646 222.787 148.19C214.344 153.761 204.231 157.003 193.36 157.003C188.749 157.003 184.232 156.426 179.809 155.271C177.244 154.601 174.75 153.747 172.328 152.71C171.469 157.938 171.327 163.301 171.901 168.8ZM144.481 312.095L159.974 352.917L163.546 351.839C176.074 348.058 187.223 343.033 196.994 336.763C206.685 330.544 214.861 323.205 221.52 314.746C228.149 306.326 233.15 296.957 236.524 286.639C239.888 276.352 241.57 265.316 241.57 253.53C241.57 244.977 240.774 237.188 239.183 230.163C237.571 223.046 235.169 216.83 231.978 211.517C228.7 206.059 224.657 201.66 219.848 198.32C214.961 194.925 209.407 192.71 203.187 191.674C200.724 191.231 198.185 191.01 195.57 191.01L194.86 191.01C191.924 191.01 189.05 191.244 186.238 191.711C183.451 192.174 180.765 192.861 178.18 193.77C175.597 194.678 173.155 195.794 170.852 197.119C168.534 198.453 166.394 199.977 164.432 201.691C162.444 203.428 160.67 205.334 159.11 207.407C157.522 209.518 156.181 211.771 155.087 214.166C153.97 216.609 153.126 219.166 152.554 221.835C151.971 224.56 151.68 227.368 151.68 230.26C151.68 234.285 152.2 238.112 153.241 241.742C154.205 245.105 155.598 248.238 157.419 251.142C158.9 254.85 160.836 258.25 163.227 261.341C165.713 264.556 168.598 267.316 171.88 269.622C175.229 271.975 178.873 273.769 182.81 275.005C185.256 275.773 187.769 276.31 190.349 276.616C189.545 278.887 188.49 281.111 187.185 283.288C184.977 286.97 182.096 290.451 178.54 293.731C174.867 297.118 170.549 300.223 165.585 303.045C160.443 305.968 154.703 308.534 148.364 310.743L144.481 312.095ZM164.79 343.06C175.162 339.646 184.457 335.303 192.673 330.03C201.61 324.295 209.13 317.551 215.234 309.797C221.278 302.12 225.84 293.572 228.92 284.153C232.02 274.674 233.57 264.466 233.57 253.53C233.57 245.573 232.84 238.373 231.381 231.93C229.958 225.647 227.871 220.216 225.12 215.636C222.431 211.159 219.153 207.577 215.285 204.89C211.382 202.179 206.911 200.405 201.873 199.566C199.811 199.195 197.71 199.01 195.57 199.01L194.86 199.01C189.883 199.01 185.207 199.779 180.833 201.317C176.578 202.813 172.865 204.946 169.696 207.715C166.516 210.494 164.072 213.752 162.363 217.491C160.574 221.404 159.68 225.661 159.68 230.26C159.68 233.535 160.097 236.628 160.931 239.537C161.717 242.278 162.862 244.818 164.365 247.158L164.582 247.495L164.728 247.869C165.947 251.004 167.557 253.863 169.555 256.447C171.548 259.024 173.856 261.233 176.479 263.076C179.15 264.953 182.059 266.385 185.206 267.372C188.481 268.401 191.921 268.917 195.524 268.92L200.421 268.925L199.439 273.722C198.468 278.464 196.67 283.024 194.046 287.401C191.445 291.742 188.084 295.812 183.964 299.612C179.842 303.413 175.034 306.875 169.539 309.999C165.047 312.553 160.152 314.848 154.856 316.884L164.79 343.06Z">
</path>
<defs>
<linearGradient id="linear_fill_148_27_1" x1="-25.919403076171875" y1="-20.186851501464844" x2="340.0880126953125" y2="287.9308776855469" gradientUnits="userSpaceOnUse">
<stop offset="0" stop-color="#A263CF"  />
<stop offset="1" stop-color="#8194F0"  />
</linearGradient>
</defs>
</svg>
